<?xml version="1.0" standalone="no"?>
<!DOCTYPE svg PUBLIC "-//W3C//DTD SVG 20010904//EN"
 "http://www.w3.org/TR/2001/REC-SVG-20010904/DTD/svg10.dtd">
<svg version="1.0" xmlns="http://www.w3.org/2000/svg"
 width="580.000000pt" height="386.000000pt" viewBox="0 0 580.000000 386.000000"
 preserveAspectRatio="xMidYMid meet">
<metadata>
Created by potrace 1.15, written by Peter Selinger 2001-2017
</metadata>
<g transform="translate(0.000000,386.000000) scale(0.100000,-0.100000)"
fill="#000000" stroke="none">
<path d="M4586 2905 c-4 -20 -23 -68 -41 -107 -43 -90 -47 -147 -11 -183 l24
-24 -24 -50 c-13 -28 -37 -72 -55 -97 -30 -44 -32 -45 -50 -28 -29 26 -79 133
-79 169 0 29 5 34 50 53 32 14 53 29 59 45 11 28 10 237 0 237 -4 0 -44 -35
-88 -77 -72 -69 -81 -82 -81 -114 0 -19 7 -44 15 -55 16 -21 21 -109 5 -99 -5
3 -21 27 -35 54 -38 70 -69 84 -161 76 -41 -4 -73 -10 -72 -14 16 -32 68 -110
90 -133 29 -31 70 -37 126 -17 39 13 72 -2 72 -34 0 -26 31 -80 68 -119 l25
-28 -58 -62 c-32 -35 -67 -72 -76 -82 -10 -11 -31 -21 -46 -23 -15 -2 -43 -5
-61 -7 -18 -2 -38 -9 -45 -14 -7 -6 -80 -11 -165 -11 l-154 -2 22 31 c34 47 1
36 -41 -15 l-36 -43 -7 91 c-4 51 -11 96 -16 101 -14 14 -40 -1 -40 -23 0 -28
-45 -128 -77 -169 -23 -31 -27 -33 -36 -17 -6 11 -7 62 -3 132 6 99 5 114 -9
120 -29 10 -43 -19 -49 -107 -5 -64 -13 -98 -34 -139 -15 -30 -32 -56 -39 -58
-22 -8 -35 72 -40 260 l-6 187 48 0 c58 0 58 23 -1 30 -29 4 -40 10 -42 25 -2
11 -8 24 -12 29 -14 14 -40 -13 -40 -39 0 -18 -8 -26 -35 -35 -19 -6 -35 -16
-35 -22 0 -6 13 -8 35 -4 l35 7 0 -144 c0 -124 -3 -153 -23 -213 -13 -38 -28
-68 -33 -66 -5 1 -9 66 -9 144 -1 121 -3 143 -18 152 -24 15 -36 -1 -47 -65
-17 -104 -76 -249 -100 -249 -6 0 -11 70 -12 168 -3 159 -4 167 -23 167 -19 0
-20 -8 -25 -135 -5 -112 -9 -142 -27 -175 l-21 -40 -12 29 c-6 16 -13 72 -16
125 -8 139 -7 137 -60 150 -67 17 -106 -5 -155 -89 -61 -105 -86 -138 -119
-155 -40 -21 -66 -7 -80 43 -15 55 -14 58 30 71 50 15 73 49 73 108 0 72 -48
101 -112 68 -40 -20 -56 -66 -56 -165 0 -105 7 -130 46 -169 56 -56 117 -36
181 59 l17 25 0 -32 c1 -36 23 -63 52 -63 28 0 58 34 89 104 31 68 33 66 44
-41 7 -75 29 -113 66 -113 20 0 35 8 45 24 16 24 17 24 36 5 10 -10 24 -19 29
-19 24 0 59 50 74 106 27 98 32 104 34 44 3 -73 11 -111 30 -132 34 -40 71
-13 94 67 l15 49 7 -44 c9 -59 30 -90 61 -90 29 0 62 40 71 86 7 36 24 47 24
15 0 -10 8 -29 18 -41 15 -18 25 -22 46 -16 27 7 36 22 94 156 9 20 11 10 11
-60 l0 -85 -48 -52 -48 -51 -26 26 c-24 23 -29 24 -51 13 -34 -19 -48 -57 -47
-127 2 -122 64 -254 119 -254 74 0 141 151 157 357 l7 92 67 -3 c36 -2 114 -4
174 -5 86 -1 107 -4 107 -16 0 -7 7 -18 16 -23 15 -9 15 -14 -7 -52 -26 -46
-32 -51 -94 -70 -70 -22 -255 -162 -266 -200 -4 -14 -7 -58 -8 -98 -1 -80 17
-137 46 -145 58 -16 72 -16 87 -1 23 22 20 36 -6 29 -36 -11 -40 -11 -45 2 -7
18 41 58 85 71 21 6 48 22 59 34 34 37 114 204 122 255 4 27 22 70 39 97 18
28 32 56 32 63 0 7 7 13 15 13 28 0 18 -67 -20 -129 -43 -70 -105 -303 -105
-395 0 -75 29 -141 91 -210 l44 -48 51 68 c28 38 57 80 64 93 16 32 14 106 -9
289 -16 124 -25 162 -45 197 -18 30 -26 58 -26 91 l0 48 40 -54 c22 -29 40
-64 40 -76 0 -12 22 -55 50 -96 27 -41 58 -103 70 -141 19 -61 29 -76 98 -142
42 -41 81 -75 85 -75 15 0 38 73 44 141 11 131 -29 199 -181 306 -59 43 -88
57 -120 59 -31 2 -48 10 -69 34 l-27 31 24 26 24 26 84 -41 83 -41 25 20 c47
37 112 61 179 66 59 4 70 2 100 -21 42 -31 70 -33 104 -6 14 11 36 20 50 20
22 0 26 -7 42 -67 17 -68 52 -143 67 -143 4 0 31 15 60 34 78 49 161 89 305
147 138 55 163 71 163 104 0 35 -21 52 -120 95 -107 47 -307 146 -360 178 -19
12 -40 22 -46 22 -18 0 -65 -117 -78 -193 -14 -81 -30 -92 -79 -51 -36 31 -68
31 -105 -1 -31 -26 -104 -36 -117 -16 -3 5 -18 9 -33 9 -15 -1 -60 13 -101 30
-69 29 -76 30 -102 16 -16 -8 -41 -19 -56 -25 -26 -9 -26 -9 -11 8 23 27 140
177 159 205 9 13 28 29 42 37 30 16 52 4 68 -36 10 -26 40 -30 58 -9 18 21 -3
56 -33 56 -13 0 -29 6 -35 14 -10 12 -8 16 11 22 13 4 32 8 43 8 14 1 21 9 23
29 5 39 -25 48 -52 15 -19 -23 -78 -68 -89 -68 -2 0 3 25 11 55 12 44 22 59
49 75 51 30 75 76 69 132 -5 45 -72 198 -87 198 -4 0 -10 -16 -13 -35z m53
-81 c29 -76 27 -125 -5 -163 -14 -17 -29 -31 -33 -31 -4 0 -2 33 5 73 16 86
17 137 5 137 -9 0 -15 -29 -26 -130 -7 -67 -20 -93 -35 -70 -10 15 -14 42 -11
70 4 28 66 178 73 174 4 -3 16 -29 27 -60z m501 -497 c0 -4 -6 -23 -14 -41 -9
-23 -30 -42 -70 -64 -30 -18 -60 -32 -64 -32 -16 0 18 149 43 190 6 10 105
-40 105 -53z m124 -51 l95 -44 -11 -36 c-15 -49 -37 -46 -118 13 -53 39 -66
53 -68 79 -2 18 -1 32 2 32 2 0 47 -20 100 -44z m-52 -88 c60 -41 75 -55 66
-65 -6 -7 -44 -36 -85 -63 l-74 -50 -59 30 c-66 33 -71 39 -77 85 -4 33 -2 35
69 74 40 22 75 41 78 41 3 0 40 -23 82 -52z m242 3 c77 -33 94 -51 68 -73 -19
-16 -131 -63 -136 -57 -2 2 -11 21 -19 41 -15 36 -12 76 8 108 8 13 0 15 79
-19z m-1759 -238 c-14 -144 -56 -276 -91 -290 -25 -10 -54 28 -76 100 -24 81
-28 167 -9 191 19 23 30 20 42 -11 8 -21 6 -36 -7 -65 -18 -41 -13 -85 13 -95
40 -15 69 43 54 109 -8 35 -6 41 31 83 22 25 42 45 45 45 3 0 2 -30 -2 -67z
m729 -45 c17 -12 61 -45 98 -74 55 -45 70 -63 87 -109 12 -31 21 -60 21 -65 0
-22 -62 20 -91 60 -17 25 -70 85 -118 134 -75 77 -82 88 -57 82 17 -4 44 -17
60 -28z m-229 -189 l-7 -181 -36 -32 c-72 -64 -72 -64 -72 -5 0 46 4 57 32 86
18 18 27 33 21 33 -7 0 -15 -4 -18 -10 -20 -32 -19 3 2 93 13 56 26 111 28
123 5 21 42 74 52 74 3 0 2 -82 -2 -181z m70 108 c17 -58 20 -101 5 -92 -15 9
-12 -6 4 -24 7 -9 16 -42 19 -75 l6 -58 -25 23 c-30 28 -31 18 -2 -21 24 -33
39 -140 19 -140 -6 0 -11 4 -11 8 0 4 -16 26 -36 47 l-35 39 5 76 c3 41 5 124
6 184 0 95 2 107 15 96 8 -7 22 -35 30 -63z m-410 -152 c-40 -60 -66 -128 -52
-142 3 -3 19 23 35 58 28 63 76 129 93 129 10 0 41 -101 33 -109 -3 -3 -33
-19 -67 -36 -46 -22 -66 -39 -78 -63 -14 -31 -16 -32 -30 -16 -16 19 -23 144
-10 191 6 23 16 29 57 39 27 6 52 12 56 13 5 0 -12 -28 -37 -64z m336 -277 c1
-77 3 -86 10 -53 4 22 8 64 8 94 l1 55 30 -29 c46 -44 46 -57 -1 -137 l-42
-72 -35 40 c-52 60 -75 110 -62 135 11 19 66 59 83 59 4 0 8 -42 8 -92z"/>
<path d="M2229 2608 c-1 -7 -1 -111 1 -230 l2 -218 -158 0 -158 0 -21 26 c-20
25 -22 26 -65 13 -25 -7 -51 -19 -57 -27 -11 -13 -16 -11 -35 14 -102 129
-204 247 -233 270 -51 38 -159 75 -240 81 -38 3 -136 0 -218 -6 -144 -10 -149
-11 -225 -50 -42 -23 -138 -86 -212 -142 -165 -124 -219 -151 -292 -147 -48 3
-53 5 -52 26 1 27 -22 29 -36 3 -29 -56 13 -133 141 -256 331 -318 630 -412
960 -300 186 64 314 176 403 353 29 57 51 66 66 26 16 -42 12 -64 -15 -74 -23
-9 -25 -13 -19 -47 4 -21 13 -41 20 -46 16 -9 7 -37 -12 -37 -20 0 -33 -40
-23 -67 11 -29 -22 -71 -59 -75 -19 -2 -28 -9 -30 -25 -4 -27 -29 -44 -108
-72 l-61 -23 1 -59 c1 -52 -2 -63 -22 -77 -21 -17 -22 -20 -10 -57 9 -29 19
-41 36 -43 12 -2 26 -11 32 -21 12 -24 70 -51 107 -51 16 0 34 -5 40 -11 18
-18 67 -7 71 16 2 11 15 32 28 46 14 14 27 42 31 62 5 31 1 40 -25 67 -29 29
-62 37 -96 24 -9 -3 -16 -12 -16 -19 0 -10 10 -12 35 -8 43 7 75 -17 75 -57 0
-43 -23 -65 -65 -62 -30 3 -37 0 -42 -17 -3 -12 -11 -21 -19 -21 -21 0 -67 20
-86 37 -16 15 -16 17 -2 28 13 9 15 21 9 53 -6 36 -10 42 -32 42 -32 0 -26 21
13 38 54 24 59 29 62 64 3 38 40 68 85 68 20 0 30 9 46 43 22 44 65 97 81 97
16 0 21 37 9 64 -14 30 1 56 33 56 17 0 19 6 16 48 -3 40 -6 47 -25 50 -14 2
-23 10 -23 21 0 14 11 20 48 24 42 5 49 3 68 -20 12 -14 27 -42 34 -63 11 -34
11 -41 -4 -55 -20 -20 -20 -25 -1 -51 17 -26 4 -87 -26 -120 -24 -26 -24 -45
1 -74 11 -13 20 -29 20 -37 0 -18 28 -73 50 -98 9 -11 20 -31 23 -45 6 -24 12
-26 102 -38 52 -7 100 -10 106 -7 14 9 129 -27 129 -41 0 -24 30 -38 58 -27
34 12 102 -18 102 -45 0 -25 19 -42 47 -42 12 0 27 -9 33 -19 10 -20 14 -71 5
-71 -2 0 -29 12 -59 27 -55 26 -86 26 -86 -2 0 -23 37 -55 65 -55 22 0 25 -4
24 -32 0 -18 -4 -55 -9 -83 -4 -27 -5 -53 -1 -58 13 -13 42 18 51 53 8 31 9
29 7 -20 -2 -59 14 -82 24 -34 6 26 7 26 8 5 1 -30 17 -17 24 19 4 21 4 20 6
-7 0 -18 6 -33 12 -33 15 0 3 63 -22 112 -26 50 -25 60 5 47 17 -8 29 -8 45 0
42 23 16 71 -38 71 -15 0 -21 6 -21 20 0 12 -8 35 -17 53 -9 18 -16 36 -15 40
5 19 -20 47 -44 47 -33 0 -114 47 -114 66 0 19 -40 34 -62 23 -21 -11 -59 -11
-76 0 -10 6 -9 14 5 39 16 29 17 34 3 59 -19 34 -60 42 -85 17 -13 -13 -16
-28 -12 -61 l5 -43 -42 1 c-54 1 -74 10 -89 39 -9 18 -21 25 -42 25 -23 1 -35
9 -57 45 -31 49 -35 81 -13 100 19 16 19 44 0 64 -13 13 -14 22 -5 57 7 23 18
52 26 64 14 21 10 55 -6 55 -4 0 -11 15 -14 34 -4 18 -20 53 -36 77 -16 24
-30 47 -30 52 0 4 65 7 145 7 l145 0 0 -38 c0 -21 3 -41 6 -45 13 -12 34 6 34
30 0 14 3 23 8 21 4 -2 19 -10 34 -17 55 -28 98 9 98 85 0 39 -12 68 -43 101
l-20 22 29 11 c41 16 64 39 85 85 21 46 25 153 8 206 -34 100 -119 106 -169
11 l-19 -37 1 40 c2 60 -9 85 -38 85 -13 0 -25 -6 -25 -12z m180 -63 c23 -47
25 -171 4 -230 -21 -59 -59 -85 -99 -66 -23 10 -24 15 -24 101 0 167 74 288
119 195z m-1232 -58 c44 -23 283 -291 283 -318 0 -4 -18 -6 -39 -5 -37 1 -43
5 -89 71 -61 86 -189 208 -254 241 -26 13 -48 26 -48 28 0 11 120 -3 147 -17z
m159 -32 c23 -14 62 -49 87 -77 51 -61 157 -204 157 -213 0 -3 -15 -4 -34 -3
-30 3 -45 16 -121 108 -48 58 -117 136 -154 173 l-66 68 45 -16 c24 -9 63 -27
86 -40z m-265 -1 c55 -30 172 -147 223 -223 20 -29 36 -57 36 -61 0 -4 -14 -7
-31 -6 -32 2 -59 27 -197 184 -56 65 -134 111 -186 113 -17 0 -40 4 -51 9 -17
6 -13 9 20 15 22 3 45 8 50 9 20 5 90 -16 136 -40z m385 -9 c44 -26 244 -255
244 -279 0 -3 -13 -6 -29 -6 -31 0 -48 18 -165 173 -32 43 -79 96 -104 118
-41 35 -43 39 -16 29 16 -6 47 -22 70 -35z m-532 -9 c78 -24 119 -59 198 -169
l75 -104 -31 -1 c-36 -1 -71 29 -118 98 -68 100 -134 145 -236 159 -53 7 -55
9 -32 19 35 15 89 14 144 -2z m-38 -62 c49 -17 99 -68 147 -151 l36 -63 -27 0
c-40 1 -64 18 -116 82 -68 84 -104 103 -199 103 l-78 0 28 22 c41 33 127 36
209 7z m-76 -67 c32 -16 57 -40 88 -84 26 -38 38 -63 30 -63 -7 0 -41 23 -76
51 -34 27 -78 57 -97 65 -40 16 -115 18 -165 4 -34 -10 -34 -10 -15 9 27 27
113 51 155 45 19 -3 55 -15 80 -27z m-55 -57 c42 -21 133 -105 123 -115 -3 -4
-44 13 -89 37 -84 43 -84 43 -191 43 -59 0 -104 3 -100 7 14 13 139 47 176 47
22 1 58 -8 81 -19z m-7 -90 c29 -12 52 -27 52 -32 0 -12 -314 -3 -378 12 -76
17 -54 31 70 44 119 13 183 7 256 -24z m-383 -25 c78 -30 178 -45 312 -46
l108 -1 -60 -20 c-75 -25 -248 -33 -318 -14 -54 15 -122 59 -145 94 -15 23
-15 23 14 17 16 -4 56 -17 89 -30z m111 -116 c109 -15 178 -6 353 48 26 7 -79
-85 -119 -104 -58 -29 -178 -24 -263 11 -68 28 -127 69 -127 87 0 5 18 0 40
-11 22 -11 74 -25 116 -31z m444 45 c0 -7 -104 -136 -127 -156 -29 -27 -88
-48 -132 -48 -55 0 -160 34 -201 66 -19 15 -26 23 -15 19 99 -37 176 -44 248
-23 23 7 65 34 96 63 31 28 67 58 81 67 25 17 50 23 50 12z m550 -1 c0 -16
-77 -150 -111 -193 -118 -150 -220 -220 -323 -220 l-61 0 53 31 c79 45 180
150 258 269 57 87 74 106 99 110 35 7 85 8 85 3z m127 -7 c1 -1 -19 -34 -45
-72 -117 -176 -250 -306 -324 -318 -22 -4 -42 -5 -44 -4 -2 2 21 22 51 45 67
52 214 228 255 305 31 57 31 58 68 52 20 -3 38 -7 39 -8z m121 6 c-58 -132
-179 -265 -294 -325 -40 -20 -75 -37 -79 -37 -4 0 24 31 62 68 38 38 106 115
151 173 46 57 87 110 93 117 10 13 73 17 67 4z m-739 -84 c-63 -105 -124 -163
-193 -183 -46 -13 -58 -13 -110 0 -66 17 -123 42 -133 58 -4 7 0 8 13 3 34
-13 99 -23 129 -19 72 8 114 34 184 112 64 71 116 110 148 111 7 0 -10 -37
-38 -82z m138 -15 c-68 -109 -153 -200 -209 -226 -45 -21 -108 -22 -176 -2
-63 19 -83 41 -28 32 49 -8 126 13 177 49 23 16 63 60 90 99 111 161 94 145
154 145 l54 0 -62 -97z m193 88 c0 -6 -4 -13 -10 -16 -5 -3 -26 -37 -46 -75
-43 -83 -131 -182 -208 -235 -68 -47 -156 -64 -209 -41 l-32 14 38 1 c81 2
203 99 284 226 68 106 99 135 145 135 21 0 38 -4 38 -9z"/>
</g>
</svg>
